<svg xmlns="http://www.w3.org/2000/svg" aria-hidden="true" style="position:absolute;width:0;height:0;overflow:hidden">

   <symbol id="logo" fill="none" viewBox="0 0 54 54">
      <path d="M9.40577 16.2336L1.40132 24.2381C0.229746 25.4096 0.229746 27.3091 1.40132 28.4807L10.1263 37.2057C11.2979 38.3773 13.1974 38.3773 14.369 37.2057L22.3734 29.2012C23.545 28.0297 23.545 26.1302 22.3734 24.9586L13.6484 16.2336C12.4768 15.062 10.5773 15.062 9.40577 16.2336Z" fill="black"/>
      <path d="M24.4948 31.6047L16.4903 39.6091C15.3188 40.7807 15.3188 42.6802 16.4903 43.8518L25.2153 52.5768C26.3869 53.7484 28.2864 53.7484 29.458 52.5768L37.4624 44.5723C38.634 43.4008 38.634 41.5013 37.4624 40.3297L28.7374 31.6047C27.5658 30.4331 25.6663 30.4331 24.4948 31.6047Z" fill="black"/>
      <path d="M24.4953 1.14588L15.7703 9.87087C14.5987 11.0424 14.5987 12.9419 15.7703 14.1135L24.4953 22.8385C25.6669 24.0101 27.5664 24.0101 28.738 22.8385L37.4629 14.1135C38.6345 12.9419 38.6345 11.0424 37.4629 9.87087L28.738 1.14588C27.5664 -0.0256966 25.6669 -0.0256955 24.4953 1.14588Z" fill="black"/>
      <path d="M39.5843 16.5131L30.8593 25.2381C29.6877 26.4096 29.6877 28.3091 30.8593 29.4807L39.5843 38.2057C40.7559 39.3773 42.6554 39.3773 43.827 38.2057L52.5519 29.4807C53.7235 28.3091 53.7235 26.4096 52.5519 25.2381L43.827 16.5131C42.6554 15.3415 40.7559 15.3415 39.5843 16.5131Z" fill="black"/>
  </symbol>
   
   <symbol id="logo2" fill="none" viewBox="0 0 133 159">
      <path d="M66.198 0.773438C55.458 2.15344 49.271 22.0154 53.964 29.1034C54.221 29.3836 54.5315 29.6094 54.8773 29.7674C55.2231 29.9255 55.597 30.0125 55.977 30.0234C56.3983 30.017 56.8111 29.9041 57.177 29.6954L62.888 23.3644C63.3198 22.8656 63.8539 22.4654 64.454 22.1912C65.0541 21.9169 65.7062 21.775 66.366 21.775C67.0258 21.775 67.6779 21.9169 68.278 22.1912C68.8781 22.4654 69.4122 22.8656 69.844 23.3644L75.554 29.6944C75.92 29.9031 76.3328 30.016 76.754 30.0224C77.1313 30.0114 77.5025 29.9251 77.8459 29.7687C78.1894 29.6123 78.4981 29.3888 78.754 29.1114C83.463 22.0394 77.279 2.15444 66.531 0.773438H66.198Z" fill="#141215"/>
      <path d="M33.674 105.945C35.437 106.251 40.763 113.084 41.618 114.445C42.1604 115.173 42.4052 116.08 42.3027 116.982C42.2001 117.883 41.7579 118.712 41.066 119.299C35.102 121.099 32.247 126.425 30.696 132.648C30.4928 134.108 30.1605 135.547 29.703 136.948C29.286 137.888 28.303 139.279 27.055 139.266C25.455 139.248 24.666 136.742 23.966 134.966C21.96 129.866 19.674 123.918 20.104 116.982C20.58 109.333 25.525 105.867 33.675 105.949" fill="#141215"/>
      <path d="M99.059 105.945C97.296 106.251 91.969 113.084 91.115 114.445C90.5727 115.173 90.3281 116.08 90.4308 116.982C90.5335 117.883 90.9759 118.712 91.668 119.299C97.631 121.099 100.486 126.425 102.038 132.648C102.242 134.108 102.574 135.547 103.031 136.948C103.448 137.888 104.431 139.279 105.679 139.266C107.279 139.248 108.068 136.742 108.768 134.966C110.774 129.866 113.06 123.918 112.63 116.982C112.154 109.333 107.21 105.867 99.06 105.949" fill="#141215"/>
      <path d="M60.8109 127.347C62.7239 129.467 64.2899 128.865 64.2899 126.009V91.3262C64.2899 88.4692 62.6369 87.7862 60.6179 89.8052L46.5849 103.835C45.6108 104.835 45.0498 106.165 45.014 107.56C44.9782 108.956 45.4703 110.313 46.3919 111.361L60.8109 127.347Z" fill="#141215"/>
      <path d="M68.444 126.011C68.444 128.867 70.008 129.468 71.921 127.349L86.34 111.363C87.2614 110.315 87.7534 108.957 87.7174 107.562C87.6814 106.167 87.1202 104.836 86.146 103.837L72.115 89.8049C70.096 87.7859 68.444 88.4699 68.444 91.3259V126.011Z" fill="#141215"/>
      <path d="M96.083 61.6702C95.6373 61.1693 95.0936 60.7652 94.4855 60.4829C93.8774 60.2006 93.2179 60.0461 92.5476 60.0289C91.8774 60.0118 91.2108 60.1324 90.5891 60.3832C89.9673 60.634 89.4037 61.0097 88.933 61.4872L72.976 77.4442C72.0061 78.4199 71.4617 79.7399 71.4617 81.1157C71.4617 82.4915 72.0061 83.8114 72.976 84.7872L88.934 100.745C89.4043 101.223 89.9679 101.6 90.5898 101.851C91.2117 102.102 91.8786 102.223 92.5492 102.206C93.2197 102.188 93.8795 102.033 94.4875 101.75C95.0956 101.467 95.639 101.062 96.084 100.56L110.146 84.9712C111.072 83.9002 111.582 82.5316 111.582 81.1157C111.582 79.6997 111.072 78.3311 110.146 77.2602L96.083 61.6702Z" fill="#141215"/>
      <path d="M59.758 84.7895C60.7279 83.8139 61.2723 82.4941 61.2723 81.1185C61.2723 79.7428 60.7279 78.4231 59.758 77.4475L43.7991 61.4885C43.3287 61.0105 42.7651 60.6344 42.1433 60.3833C41.5215 60.1322 40.8547 60.0116 40.1844 60.029C39.514 60.0463 38.8544 60.2012 38.2464 60.4841C37.6384 60.767 37.0951 61.1718 36.6501 61.6735L22.5831 77.2625C21.658 78.334 21.149 79.7024 21.149 81.118C21.149 82.5335 21.658 83.9019 22.5831 84.9735L36.6451 100.562C37.09 101.064 37.6333 101.469 38.2413 101.752C38.8493 102.035 39.509 102.19 40.1794 102.207C40.8498 102.225 41.5166 102.104 42.1384 101.853C42.7602 101.602 43.3238 101.226 43.7941 100.747L59.758 84.7895Z" fill="#141215"/>
      <path d="M62.696 74.5065C63.6716 75.4764 64.9913 76.0207 66.367 76.0207C67.7426 76.0207 69.0624 75.4764 70.038 74.5065L86.147 58.3985C87.1213 57.3991 87.6825 56.0687 87.7182 54.6733C87.754 53.278 87.2618 51.9206 86.34 50.8725L69.845 32.5855C69.4131 32.0867 68.8791 31.6865 68.279 31.4123C67.6788 31.138 67.0268 30.9961 66.367 30.9961C65.7072 30.9961 65.0551 31.138 64.455 31.4123C63.8549 31.6865 63.3208 32.0867 62.889 32.5855L46.389 50.8725C45.467 51.9209 44.9747 53.2787 45.0105 54.6743C45.0463 56.07 45.6075 57.4007 46.582 58.4005L62.696 74.5065Z" fill="#141215"/>
      <path d="M73.027 135.914C73.901 137.389 69.993 143.189 72.675 148.867C74.526 154.303 78.306 156.479 75.099 158.159C74.344 158.1 72.947 156.702 72.156 155.978C66.5679 151.033 62.3599 144.721 59.944 137.66C59.321 135.805 58.493 134.005 59.29 132.426C62.484 130.613 64.56 139.098 67.577 138.641C69.522 138.261 70.431 133.192 73.028 135.915" fill="#141215"/>
      <path d="M1.17299 60.601C-0.119011 60.658 -0.208011 59.187 0.255989 58.648C4.26699 53.654 8.54899 48.264 13.756 43.867C18.3 40.023 24.956 35.207 31.414 36.539C39.587 38.139 41.882 44.776 41.045 48.534C40.221 52.234 35.837 54.718 33.028 56.097C21.428 60.832 16.606 51.65 1.17699 60.597" fill="#141215"/>
      <path d="M131.561 60.601C132.853 60.658 132.942 59.187 132.477 58.648C128.466 53.654 124.185 48.264 118.977 43.867C114.434 40.023 107.777 35.207 101.319 36.539C93.147 38.139 90.851 44.776 91.689 48.534C92.513 52.234 96.896 54.718 99.705 56.097C111.305 60.832 116.127 51.65 131.557 60.597" fill="#141215"/>
  </symbol>

   <symbol id="arr_r" fill="none" viewBox="0 0 61 60">
      <path d="M57.411 30.2852L0.84201 30.2852" stroke="white" stroke-width="4"/>
      <path d="M29.1267 2.00089L57.411 30.2852L29.1267 58.5694" stroke="white" stroke-width="4"/>
   </symbol>

   <symbol id="arr_l" fill="none" viewBox="0 0 60 60">
      <path d="M3.214 30.2852H59.783" stroke="white" stroke-width="4"/>
      <path d="M31.4983 58.5694L3.214 30.2852L31.4983 2.00089" stroke="white" stroke-width="4"/>
   </symbol>

   <symbol id="arr_r_black" fill="none" viewBox="0 0 61 60">
      <path d="M57.411 30.2852L0.84201 30.2852" stroke="#000000" stroke-width="4"/>
      <path d="M29.1267 2.00089L57.411 30.2852L29.1267 58.5694" stroke="#000000" stroke-width="4"/>
   </symbol>

   <symbol id="arr_l_black" fill="none" viewBox="0 0 60 60">
      <path d="M3.214 30.2852H59.783" stroke="#000000" stroke-width="4"/>
      <path d="M31.4983 58.5694L3.214 30.2852L31.4983 2.00089" stroke="#000000" stroke-width="4"/>
   </symbol>

   <symbol id="arr_up" fill="none" viewBox="0 0 44 44">
      <path d="M21.7178 1.96484L21.7178 43.5298" stroke="#000000" stroke-width="2"/>
      <path d="M0.935198 22.7474L21.7178 1.96484L42.5003 22.7474" stroke="#000000" stroke-width="2"/>
   </symbol>

</svg>