<svg xmlns="http://www.w3.org/2000/svg" aria-hidden="true" style="position:absolute;width:0;height:0;overflow:hidden">

   <symbol id="logo" fill="none" viewBox="0 0 54 54">
      <path d="M9.40577 16.2336L1.40132 24.2381C0.229746 25.4096 0.229746 27.3091 1.40132 28.4807L10.1263 37.2057C11.2979 38.3773 13.1974 38.3773 14.369 37.2057L22.3734 29.2012C23.545 28.0297 23.545 26.1302 22.3734 24.9586L13.6484 16.2336C12.4768 15.062 10.5773 15.062 9.40577 16.2336Z" fill="black"/>
      <path d="M24.4948 31.6047L16.4903 39.6091C15.3188 40.7807 15.3188 42.6802 16.4903 43.8518L25.2153 52.5768C26.3869 53.7484 28.2864 53.7484 29.458 52.5768L37.4624 44.5723C38.634 43.4008 38.634 41.5013 37.4624 40.3297L28.7374 31.6047C27.5658 30.4331 25.6663 30.4331 24.4948 31.6047Z" fill="black"/>
      <path d="M24.4953 1.14588L15.7703 9.87087C14.5987 11.0424 14.5987 12.9419 15.7703 14.1135L24.4953 22.8385C25.6669 24.0101 27.5664 24.0101 28.738 22.8385L37.4629 14.1135C38.6345 12.9419 38.6345 11.0424 37.4629 9.87087L28.738 1.14588C27.5664 -0.0256966 25.6669 -0.0256955 24.4953 1.14588Z" fill="black"/>
      <path d="M39.5843 16.5131L30.8593 25.2381C29.6877 26.4096 29.6877 28.3091 30.8593 29.4807L39.5843 38.2057C40.7559 39.3773 42.6554 39.3773 43.827 38.2057L52.5519 29.4807C53.7235 28.3091 53.7235 26.4096 52.5519 25.2381L43.827 16.5131C42.6554 15.3415 40.7559 15.3415 39.5843 16.5131Z" fill="black"/>
  </symbol>
   





</svg>